<svg width="191" height="24" viewBox="0 0 191 24" fill="none" xmlns="http://www.w3.org/2000/svg">
<path d="M8.076 18.36C6.812 18.36 5.672 18.14 4.656 17.7C3.648 17.26 2.816 16.632 2.16 15.816C1.512 14.992 1.1 14.016 0.924 12.888L3.924 12.432C4.18 13.456 4.704 14.248 5.496 14.808C6.296 15.368 7.216 15.648 8.256 15.648C8.872 15.648 9.452 15.552 9.996 15.36C10.54 15.168 10.98 14.888 11.316 14.52C11.66 14.152 11.832 13.7 11.832 13.164C11.832 12.924 11.792 12.704 11.712 12.504C11.632 12.296 11.512 12.112 11.352 11.952C11.2 11.792 11 11.648 10.752 11.52C10.512 11.384 10.232 11.268 9.912 11.172L5.448 9.852C5.064 9.74 4.648 9.592 4.2 9.408C3.76 9.216 3.34 8.956 2.94 8.628C2.548 8.292 2.224 7.868 1.968 7.356C1.72 6.836 1.596 6.196 1.596 5.436C1.596 4.324 1.876 3.392 2.436 2.64C3.004 1.88 3.764 1.312 4.716 0.935999C5.676 0.559999 6.74 0.375999 7.908 0.383999C9.092 0.391999 10.148 0.595999 11.076 0.995999C12.004 1.388 12.78 1.96 13.404 2.712C14.028 3.464 14.468 4.372 14.724 5.436L11.616 5.976C11.488 5.368 11.24 4.852 10.872 4.428C10.512 3.996 10.068 3.668 9.54 3.444C9.02 3.22 8.464 3.1 7.872 3.084C7.296 3.076 6.76 3.164 6.264 3.348C5.776 3.524 5.38 3.78 5.076 4.116C4.78 4.452 4.632 4.844 4.632 5.292C4.632 5.716 4.76 6.064 5.016 6.336C5.272 6.6 5.588 6.812 5.964 6.972C6.348 7.124 6.736 7.252 7.128 7.356L10.224 8.22C10.648 8.332 11.124 8.484 11.652 8.676C12.18 8.868 12.688 9.136 13.176 9.48C13.664 9.824 14.064 10.276 14.376 10.836C14.696 11.396 14.856 12.108 14.856 12.972C14.856 13.868 14.668 14.656 14.292 15.336C13.924 16.008 13.424 16.568 12.792 17.016C12.16 17.464 11.436 17.8 10.62 18.024C9.812 18.248 8.964 18.36 8.076 18.36ZM21.0774 18.36C20.1414 18.36 19.3494 18.184 18.7014 17.832C18.0534 17.472 17.5614 16.996 17.2254 16.404C16.8974 15.812 16.7334 15.16 16.7334 14.448C16.7334 13.824 16.8374 13.264 17.0454 12.768C17.2534 12.264 17.5734 11.832 18.0054 11.472C18.4374 11.104 18.9974 10.804 19.6854 10.572C20.2054 10.404 20.8134 10.252 21.5094 10.116C22.2134 9.98 22.9734 9.856 23.7894 9.744C24.6134 9.624 25.4734 9.496 26.3694 9.36L25.3374 9.948C25.3454 9.052 25.1454 8.392 24.7374 7.968C24.3294 7.544 23.6414 7.332 22.6734 7.332C22.0894 7.332 21.5254 7.468 20.9814 7.74C20.4374 8.012 20.0574 8.48 19.8414 9.144L17.2014 8.316C17.5214 7.22 18.1294 6.34 19.0254 5.676C19.9294 5.012 21.1454 4.68 22.6734 4.68C23.8254 4.68 24.8374 4.868 25.7094 5.244C26.5894 5.62 27.2414 6.236 27.6654 7.092C27.8974 7.548 28.0374 8.016 28.0854 8.496C28.1334 8.968 28.1574 9.484 28.1574 10.044V18H25.6254V15.192L26.0454 15.648C25.4614 16.584 24.7774 17.272 23.9934 17.712C23.2174 18.144 22.2454 18.36 21.0774 18.36ZM21.6534 16.056C22.3094 16.056 22.8694 15.94 23.3334 15.708C23.7974 15.476 24.1654 15.192 24.4374 14.856C24.7174 14.52 24.9054 14.204 25.0014 13.908C25.1534 13.54 25.2374 13.12 25.2534 12.648C25.2774 12.168 25.2894 11.78 25.2894 11.484L26.1774 11.748C25.3054 11.884 24.5574 12.004 23.9334 12.108C23.3094 12.212 22.7734 12.312 22.3254 12.408C21.8774 12.496 21.4814 12.596 21.1374 12.708C20.8014 12.828 20.5174 12.968 20.2854 13.128C20.0534 13.288 19.8734 13.472 19.7454 13.68C19.6254 13.888 19.5654 14.132 19.5654 14.412C19.5654 14.732 19.6454 15.016 19.8054 15.264C19.9654 15.504 20.1974 15.696 20.5014 15.84C20.8134 15.984 21.1974 16.056 21.6534 16.056ZM36.9096 18.36C35.5736 18.36 34.4336 18.064 33.4896 17.472C32.5456 16.872 31.8216 16.056 31.3176 15.024C30.8216 13.992 30.5696 12.824 30.5616 11.52C30.5696 10.192 30.8296 9.016 31.3416 7.992C31.8616 6.96 32.5976 6.152 33.5496 5.568C34.5016 4.976 35.6336 4.68 36.9456 4.68C38.4176 4.68 39.6616 5.052 40.6776 5.796C41.7016 6.532 42.3696 7.54 42.6816 8.82L39.8016 9.6C39.5776 8.904 39.2056 8.364 38.6856 7.98C38.1656 7.588 37.5736 7.392 36.9096 7.392C36.1576 7.392 35.5376 7.572 35.0496 7.932C34.5616 8.284 34.2016 8.772 33.9696 9.396C33.7376 10.02 33.6216 10.728 33.6216 11.52C33.6216 12.752 33.8976 13.748 34.4496 14.508C35.0016 15.268 35.8216 15.648 36.9096 15.648C37.6776 15.648 38.2816 15.472 38.7216 15.12C39.1696 14.768 39.5056 14.26 39.7296 13.596L42.6816 14.256C42.2816 15.576 41.5816 16.592 40.5816 17.304C39.5816 18.008 38.3576 18.36 36.9096 18.36ZM45.0863 18V5.04H47.6423V8.196L47.3303 7.788C47.4903 7.356 47.7023 6.964 47.9663 6.612C48.2383 6.252 48.5623 5.956 48.9383 5.724C49.2583 5.508 49.6103 5.34 49.9943 5.22C50.3863 5.092 50.7863 5.016 51.1943 4.992C51.6023 4.96 51.9983 4.976 52.3823 5.04V7.74C51.9983 7.628 51.5543 7.592 51.0503 7.632C50.5543 7.672 50.1063 7.812 49.7063 8.052C49.3063 8.268 48.9783 8.544 48.7223 8.88C48.4743 9.216 48.2903 9.6 48.1703 10.032C48.0503 10.456 47.9903 10.916 47.9903 11.412V18H45.0863ZM60.3298 18.36C59.0178 18.36 57.8658 18.076 56.8738 17.508C55.8818 16.94 55.1058 16.152 54.5458 15.144C53.9938 14.136 53.7178 12.976 53.7178 11.664C53.7178 10.248 53.9898 9.02 54.5338 7.98C55.0778 6.932 55.8338 6.12 56.8018 5.544C57.7698 4.968 58.8898 4.68 60.1618 4.68C61.5058 4.68 62.6458 4.996 63.5818 5.628C64.5258 6.252 65.2258 7.136 65.6818 8.28C66.1378 9.424 66.3098 10.772 66.1978 12.324H63.3298V11.268C63.3218 9.86 63.0738 8.832 62.5858 8.184C62.0978 7.536 61.3298 7.212 60.2818 7.212C59.0978 7.212 58.2178 7.58 57.6418 8.316C57.0658 9.044 56.7778 10.112 56.7778 11.52C56.7778 12.832 57.0658 13.848 57.6418 14.568C58.2178 15.288 59.0578 15.648 60.1618 15.648C60.8738 15.648 61.4858 15.492 61.9978 15.18C62.5178 14.86 62.9178 14.4 63.1978 13.8L66.0538 14.664C65.5578 15.832 64.7898 16.74 63.7498 17.388C62.7178 18.036 61.5778 18.36 60.3298 18.36ZM55.8658 12.324V10.14H64.7818V12.324H55.8658ZM74.0713 18.36C72.8793 18.36 71.8393 18.06 70.9513 17.46C70.0633 16.86 69.3753 16.044 68.8873 15.012C68.3993 13.98 68.1553 12.816 68.1553 11.52C68.1553 10.208 68.3993 9.04 68.8873 8.016C69.3833 6.984 70.0833 6.172 70.9873 5.58C71.8913 4.98 72.9553 4.68 74.1793 4.68C75.4113 4.68 76.4433 4.98 77.2753 5.58C78.1153 6.172 78.7513 6.984 79.1833 8.016C79.6153 9.048 79.8313 10.216 79.8313 11.52C79.8313 12.808 79.6153 13.972 79.1833 15.012C78.7513 16.044 78.1073 16.86 77.2513 17.46C76.3953 18.06 75.3353 18.36 74.0713 18.36ZM74.5153 15.768C75.2913 15.768 75.9153 15.592 76.3873 15.24C76.8673 14.88 77.2153 14.38 77.4313 13.74C77.6553 13.1 77.7673 12.36 77.7673 11.52C77.7673 10.672 77.6553 9.932 77.4313 9.3C77.2153 8.66 76.8753 8.164 76.4113 7.812C75.9473 7.452 75.3473 7.272 74.6113 7.272C73.8353 7.272 73.1953 7.464 72.6913 7.848C72.1873 8.224 71.8153 8.736 71.5753 9.384C71.3353 10.024 71.2153 10.736 71.2153 11.52C71.2153 12.312 71.3313 13.032 71.5633 13.68C71.8033 14.32 72.1673 14.828 72.6553 15.204C73.1433 15.58 73.7633 15.768 74.5153 15.768ZM77.7673 18V8.904H77.4073V0.719999H80.3233V18H77.7673ZM87.3358 18L82.2838 0.719999H85.3198L88.7638 13.2L92.1958 0.743999L95.2318 0.719999L98.6758 13.2L102.108 0.719999H105.144L100.104 18H97.2478L93.7078 5.712L90.1918 18H87.3358ZM116.066 18V11.76C116.066 11.352 116.038 10.9 115.982 10.404C115.926 9.908 115.794 9.432 115.586 8.976C115.386 8.512 115.082 8.132 114.674 7.836C114.274 7.54 113.73 7.392 113.042 7.392C112.674 7.392 112.31 7.452 111.95 7.572C111.59 7.692 111.262 7.9 110.966 8.196C110.678 8.484 110.446 8.884 110.27 9.396C110.094 9.9 110.006 10.548 110.006 11.34L108.29 10.608C108.29 9.504 108.502 8.504 108.926 7.608C109.358 6.712 109.99 6 110.822 5.472C111.654 4.936 112.678 4.668 113.894 4.668C114.854 4.668 115.646 4.828 116.27 5.148C116.894 5.468 117.39 5.876 117.758 6.372C118.126 6.868 118.398 7.396 118.574 7.956C118.75 8.516 118.862 9.048 118.91 9.552C118.966 10.048 118.994 10.452 118.994 10.764V18H116.066ZM107.078 18V0.719999H109.658V9.816H110.006V18H107.078ZM122.365 3.072V0.42H125.257V3.072H122.365ZM122.365 18V5.04H125.257V18H122.365ZM133.856 18.36C132.256 18.36 130.956 18 129.956 17.28C128.956 16.56 128.348 15.548 128.132 14.244L131.084 13.788C131.236 14.428 131.572 14.932 132.092 15.3C132.612 15.668 133.268 15.852 134.06 15.852C134.756 15.852 135.292 15.716 135.668 15.444C136.052 15.164 136.244 14.784 136.244 14.304C136.244 14.008 136.172 13.772 136.028 13.596C135.892 13.412 135.588 13.236 135.116 13.068C134.644 12.9 133.92 12.688 132.944 12.432C131.856 12.144 130.992 11.836 130.352 11.508C129.712 11.172 129.252 10.776 128.972 10.32C128.692 9.864 128.552 9.312 128.552 8.664C128.552 7.856 128.764 7.152 129.188 6.552C129.612 5.952 130.204 5.492 130.964 5.172C131.724 4.844 132.62 4.68 133.652 4.68C134.66 4.68 135.552 4.836 136.328 5.148C137.112 5.46 137.744 5.904 138.224 6.48C138.704 7.056 139 7.732 139.112 8.508L136.16 9.036C136.088 8.484 135.836 8.048 135.404 7.728C134.98 7.408 134.412 7.228 133.7 7.188C133.02 7.148 132.472 7.252 132.056 7.5C131.64 7.74 131.432 8.08 131.432 8.52C131.432 8.768 131.516 8.98 131.684 9.156C131.852 9.332 132.188 9.508 132.692 9.684C133.204 9.86 133.964 10.076 134.972 10.332C136.004 10.596 136.828 10.9 137.444 11.244C138.068 11.58 138.516 11.984 138.788 12.456C139.068 12.928 139.208 13.5 139.208 14.172C139.208 15.476 138.732 16.5 137.78 17.244C136.836 17.988 135.528 18.36 133.856 18.36ZM148.064 18.36C146.8 18.36 145.74 18.06 144.884 17.46C144.028 16.86 143.384 16.044 142.952 15.012C142.52 13.972 142.304 12.808 142.304 11.52C142.304 10.216 142.52 9.048 142.952 8.016C143.384 6.984 144.016 6.172 144.848 5.58C145.688 4.98 146.724 4.68 147.956 4.68C149.18 4.68 150.24 4.98 151.136 5.58C152.04 6.172 152.74 6.984 153.236 8.016C153.732 9.04 153.98 10.208 153.98 11.52C153.98 12.816 153.736 13.98 153.248 15.012C152.76 16.044 152.072 16.86 151.184 17.46C150.296 18.06 149.256 18.36 148.064 18.36ZM141.812 23.76V5.04H144.368V14.136H144.728V23.76H141.812ZM147.62 15.768C148.372 15.768 148.992 15.58 149.48 15.204C149.968 14.828 150.328 14.32 150.56 13.68C150.8 13.032 150.92 12.312 150.92 11.52C150.92 10.736 150.8 10.024 150.56 9.384C150.32 8.736 149.948 8.224 149.444 7.848C148.94 7.464 148.3 7.272 147.524 7.272C146.788 7.272 146.188 7.452 145.724 7.812C145.26 8.164 144.916 8.66 144.692 9.3C144.476 9.932 144.368 10.672 144.368 11.52C144.368 12.36 144.476 13.1 144.692 13.74C144.916 14.38 145.264 14.88 145.736 15.24C146.216 15.592 146.844 15.768 147.62 15.768ZM162.517 18.36C161.205 18.36 160.053 18.076 159.061 17.508C158.069 16.94 157.293 16.152 156.733 15.144C156.181 14.136 155.905 12.976 155.905 11.664C155.905 10.248 156.177 9.02 156.721 7.98C157.265 6.932 158.021 6.12 158.989 5.544C159.957 4.968 161.077 4.68 162.349 4.68C163.693 4.68 164.833 4.996 165.769 5.628C166.713 6.252 167.413 7.136 167.869 8.28C168.325 9.424 168.497 10.772 168.385 12.324H165.517V11.268C165.509 9.86 165.261 8.832 164.773 8.184C164.285 7.536 163.517 7.212 162.469 7.212C161.285 7.212 160.405 7.58 159.829 8.316C159.253 9.044 158.965 10.112 158.965 11.52C158.965 12.832 159.253 13.848 159.829 14.568C160.405 15.288 161.245 15.648 162.349 15.648C163.061 15.648 163.673 15.492 164.185 15.18C164.705 14.86 165.105 14.4 165.385 13.8L168.241 14.664C167.745 15.832 166.977 16.74 165.937 17.388C164.905 18.036 163.765 18.36 162.517 18.36ZM158.053 12.324V10.14H166.969V12.324H158.053ZM171.063 18V5.04H173.619V8.196L173.307 7.788C173.467 7.356 173.679 6.964 173.943 6.612C174.215 6.252 174.539 5.956 174.915 5.724C175.235 5.508 175.587 5.34 175.971 5.22C176.363 5.092 176.763 5.016 177.171 4.992C177.579 4.96 177.975 4.976 178.359 5.04V7.74C177.975 7.628 177.531 7.592 177.027 7.632C176.531 7.672 176.083 7.812 175.683 8.052C175.283 8.268 174.955 8.544 174.699 8.88C174.451 9.216 174.267 9.6 174.147 10.032C174.027 10.456 173.967 10.916 173.967 11.412V18H171.063ZM185.184 18.36C183.584 18.36 182.284 18 181.284 17.28C180.284 16.56 179.676 15.548 179.46 14.244L182.412 13.788C182.564 14.428 182.9 14.932 183.42 15.3C183.94 15.668 184.596 15.852 185.388 15.852C186.084 15.852 186.62 15.716 186.996 15.444C187.38 15.164 187.572 14.784 187.572 14.304C187.572 14.008 187.5 13.772 187.356 13.596C187.22 13.412 186.916 13.236 186.444 13.068C185.972 12.9 185.248 12.688 184.272 12.432C183.184 12.144 182.32 11.836 181.68 11.508C181.04 11.172 180.58 10.776 180.3 10.32C180.02 9.864 179.88 9.312 179.88 8.664C179.88 7.856 180.092 7.152 180.516 6.552C180.94 5.952 181.532 5.492 182.292 5.172C183.052 4.844 183.948 4.68 184.98 4.68C185.988 4.68 186.88 4.836 187.656 5.148C188.44 5.46 189.072 5.904 189.552 6.48C190.032 7.056 190.328 7.732 190.44 8.508L187.488 9.036C187.416 8.484 187.164 8.048 186.732 7.728C186.308 7.408 185.74 7.228 185.028 7.188C184.348 7.148 183.8 7.252 183.384 7.5C182.968 7.74 182.76 8.08 182.76 8.52C182.76 8.768 182.844 8.98 183.012 9.156C183.18 9.332 183.516 9.508 184.02 9.684C184.532 9.86 185.292 10.076 186.3 10.332C187.332 10.596 188.156 10.9 188.772 11.244C189.396 11.58 189.844 11.984 190.116 12.456C190.396 12.928 190.536 13.5 190.536 14.172C190.536 15.476 190.06 16.5 189.108 17.244C188.164 17.988 186.856 18.36 185.184 18.36Z" fill="#263238"/>
</svg>
