<svg width="181" height="31" viewBox="0 0 181 31" fill="none" xmlns="http://www.w3.org/2000/svg">
<path d="M12.4807 30.6109C10.3765 30.6109 8.47588 30.2512 6.77891 29.5316C5.09552 28.7985 3.704 27.76 2.60436 26.416C1.5183 25.0584 0.812364 23.4497 0.486546 21.5898L4.92582 20.9178C5.37382 22.7098 6.31055 24.1081 7.736 25.1127C9.16146 26.1038 10.8245 26.5993 12.7251 26.5993C13.9062 26.5993 14.9922 26.416 15.9833 26.0495C16.9743 25.6693 17.7685 25.1331 18.3658 24.4407C18.9767 23.7348 19.2822 22.8931 19.2822 21.9156C19.2822 21.3862 19.1872 20.9178 18.9971 20.5105C18.8206 20.1033 18.5695 19.7503 18.2436 19.4516C17.9314 19.1394 17.5445 18.8747 17.0829 18.6575C16.6349 18.4267 16.1394 18.2298 15.5964 18.0669L8.08218 15.8473C7.34909 15.6301 6.60242 15.3518 5.84218 15.0124C5.08194 14.6594 4.38279 14.2046 3.74473 13.648C3.12024 13.0778 2.61115 12.3787 2.21745 11.5505C1.82376 10.7088 1.62691 9.69067 1.62691 8.496C1.62691 6.69042 2.08848 5.16315 3.01164 3.91418C3.94836 2.65164 5.21091 1.70133 6.79927 1.06327C8.38764 0.411635 10.1661 0.0858166 12.1345 0.0858166C14.1166 0.112968 15.8882 0.465938 17.4495 1.14473C19.0242 1.82351 20.3275 2.80097 21.3593 4.07709C22.4046 5.33964 23.1241 6.8737 23.5178 8.67927L18.9564 9.45309C18.7527 8.35345 18.3183 7.40994 17.6531 6.62255C16.9879 5.82158 16.1733 5.21067 15.2095 4.78982C14.2456 4.35539 13.2002 4.13139 12.0735 4.11782C10.9874 4.09067 9.98958 4.25358 9.08 4.60654C8.184 4.95951 7.46449 5.45503 6.92145 6.09309C6.392 6.73115 6.12727 7.46424 6.12727 8.29236C6.12727 9.10691 6.36485 9.76533 6.84 10.2676C7.31515 10.7699 7.89891 11.1704 8.59127 11.4691C9.29721 11.7542 9.99636 11.9918 10.6887 12.1818L16.1055 13.7091C16.7842 13.8992 17.5513 14.1571 18.4065 14.4829C19.2754 14.7952 20.1103 15.2364 20.9113 15.8065C21.7258 16.3767 22.3978 17.137 22.9273 18.0873C23.4567 19.024 23.7215 20.2051 23.7215 21.6305C23.7215 23.1103 23.4228 24.4136 22.8255 25.5404C22.2281 26.6536 21.4068 27.5903 20.3615 28.3505C19.3297 29.0972 18.135 29.6606 16.7775 30.0407C15.4199 30.4208 13.9876 30.6109 12.4807 30.6109ZM40.2997 30.6109C37.3673 30.6109 34.8694 29.9728 32.8059 28.6967C30.7423 27.407 29.1608 25.615 28.0611 23.3207C26.9751 21.0264 26.432 18.3656 26.432 15.3382C26.432 12.3108 26.9751 9.64994 28.0611 7.35563C29.1608 5.06133 30.7423 3.27612 32.8059 2C34.8694 0.710302 37.3673 0.0654545 40.2997 0.0654545C43.2185 0.0654545 45.7096 0.710302 47.7731 2C49.8502 3.27612 51.4318 5.06133 52.5179 7.35563C53.6039 9.64994 54.147 12.3108 54.147 15.3382C54.147 18.3656 53.6039 21.0264 52.5179 23.3207C51.4318 25.615 49.8502 27.407 47.7731 28.6967C45.7096 29.9728 43.2185 30.6109 40.2997 30.6109ZM40.2997 26.5585C42.3768 26.5857 44.1009 26.1309 45.472 25.1942C46.8568 24.2439 47.8953 22.927 48.5877 21.2436C49.28 19.5467 49.6262 17.5782 49.6262 15.3382C49.6262 13.0982 49.28 11.1433 48.5877 9.47345C47.8953 7.79006 46.8568 6.48 45.472 5.54327C44.1009 4.60654 42.3768 4.13139 40.2997 4.11782C38.2226 4.09067 36.4917 4.54545 35.107 5.48218C33.7358 6.41891 32.704 7.73576 32.0117 9.43273C31.3193 11.1297 30.9663 13.0982 30.9528 15.3382C30.9392 17.5782 31.2786 19.5399 31.971 21.2233C32.6633 22.8931 33.7019 24.1964 35.0866 25.1331C36.4849 26.0698 38.2226 26.545 40.2997 26.5585ZM69.8976 30.6109C67.6033 30.6109 65.5737 30.1425 63.8089 29.2058C62.0576 28.2555 60.6864 26.9319 59.6954 25.2349C58.7044 23.5244 58.2089 21.5152 58.2089 19.2073V0.696728L62.526 0.676363V18.9833C62.526 20.2322 62.7364 21.3319 63.1572 22.2822C63.5781 23.2325 64.1415 24.0267 64.8474 24.6647C65.5533 25.3028 66.3407 25.7847 67.2096 26.1105C68.092 26.4364 68.988 26.5993 69.8976 26.5993C70.8207 26.5993 71.7167 26.4364 72.5856 26.1105C73.468 25.7712 74.2622 25.2824 74.9681 24.6444C75.6741 24.0063 76.2307 23.2121 76.638 22.2618C77.0588 21.3115 77.2692 20.2187 77.2692 18.9833V0.676363H81.5863V19.2073C81.5863 21.5016 81.0908 23.504 80.0998 25.2145C79.1087 26.9251 77.7308 28.2555 75.966 29.2058C74.2147 30.1425 72.1919 30.6109 69.8976 30.6109ZM87.69 30V0.676363H91.946V25.9884H105.223V30H87.69ZM109.088 30V0.676363H113.344V25.9884H126.621V30H109.088ZM130.485 30V0.676363H134.741V30H130.485ZM140.857 30V0.676363H158.227V4.93236H145.113V13.2H155.783V17.4764H145.113V30H140.857ZM161.896 30V0.676363H180.631V4.688H166.152V12.9149H178.187V16.9265H166.152V25.9884H180.631V30H161.896Z" fill="white"/>
</svg>
